<svg xmlns="http://www.w3.org/2000/svg" viewBox="0 0 1600 689" preserveAspectRatio="xMidYMid" width="1600" height="689" xmlns:xlink="http://www.w3.org/1999/xlink" style="shape-rendering:auto;display:block;background-position-x:0%;background-position-y:0%;background-size:auto;background-origin:padding-box;background-clip:border-box;background:scroll rgb(255, 255, 255) none  repeat;width:1600px;height:689px;;animation:none"><g><rect fill="#fff7f3" height="19.225" width="78" y="-1" x="0" style="fill:rgb(255, 247, 243);;animation:none"></rect>
<rect fill="#fde0dd" height="19.225" width="299" y="-1" x="77" style="fill:rgb(253, 224, 221);;animation:none"></rect>
<rect fill="#fcc5c0" height="19.225" width="133" y="-1" x="376" style="fill:rgb(252, 197, 192);;animation:none"></rect>
<rect fill="#fa9fb5" height="19.225" width="93" y="-1" x="508" style="fill:rgb(250, 159, 181);;animation:none"></rect>
<rect fill="#f768a1" height="19.225" width="313" y="-1" x="601" style="fill:rgb(247, 104, 161);;animation:none"></rect>
<rect fill="#dd3497" height="19.225" width="374" y="-1" x="913" style="fill:rgb(221, 52, 151);;animation:none"></rect>
<rect fill="#ae017e" height="19.225" width="71" y="-1" x="1287" style="fill:rgb(174, 1, 126);;animation:none"></rect>
<rect fill="#7a0177" height="19.225" width="101" y="-1" x="1357" style="fill:rgb(122, 1, 119);;animation:none"></rect>
<rect fill="#49006a" height="19.225" width="142" y="-1" x="1458" style="fill:rgb(73, 0, 106);;animation:none"></rect>
<rect fill="#fff7f3" height="19.225" width="244" y="16.2" x="0" style="fill:rgb(255, 247, 243);;animation:none"></rect>
<rect fill="#fde0dd" height="19.225" width="84" y="16.2" x="243" style="fill:rgb(253, 224, 221);;animation:none"></rect>
<rect fill="#fcc5c0" height="19.225" width="169" y="16.2" x="327" style="fill:rgb(252, 197, 192);;animation:none"></rect>
<rect fill="#fa9fb5" height="19.225" width="215" y="16.2" x="496" style="fill:rgb(250, 159, 181);;animation:none"></rect>
<rect fill="#f768a1" height="19.225" width="224" y="16.2" x="711" style="fill:rgb(247, 104, 161);;animation:none"></rect>
<rect fill="#dd3497" height="19.225" width="288" y="16.2" x="934" style="fill:rgb(221, 52, 151);;animation:none"></rect>
<rect fill="#ae017e" height="19.225" width="103" y="16.2" x="1221" style="fill:rgb(174, 1, 126);;animation:none"></rect>
<rect fill="#7a0177" height="19.225" width="121" y="16.2" x="1323" style="fill:rgb(122, 1, 119);;animation:none"></rect>
<rect fill="#49006a" height="19.225" width="156" y="16.2" x="1444" style="fill:rgb(73, 0, 106);;animation:none"></rect>
<rect fill="#fff7f3" height="19.225" width="201" y="33.5" x="0" style="fill:rgb(255, 247, 243);;animation:none"></rect>
<rect fill="#fde0dd" height="19.225" width="246" y="33.5" x="200" style="fill:rgb(253, 224, 221);;animation:none"></rect>
<rect fill="#fcc5c0" height="19.225" width="210" y="33.5" x="446" style="fill:rgb(252, 197, 192);;animation:none"></rect>
<rect fill="#fa9fb5" height="19.225" width="213" y="33.5" x="656" style="fill:rgb(250, 159, 181);;animation:none"></rect>
<rect fill="#f768a1" height="19.225" width="110" y="33.5" x="869" style="fill:rgb(247, 104, 161);;animation:none"></rect>
<rect fill="#dd3497" height="19.225" width="255" y="33.5" x="978" style="fill:rgb(221, 52, 151);;animation:none"></rect>
<rect fill="#ae017e" height="19.225" width="168" y="33.5" x="1232" style="fill:rgb(174, 1, 126);;animation:none"></rect>
<rect fill="#7a0177" height="19.225" width="147" y="33.5" x="1400" style="fill:rgb(122, 1, 119);;animation:none"></rect>
<rect fill="#49006a" height="19.225" width="54" y="33.5" x="1546" style="fill:rgb(73, 0, 106);;animation:none"></rect>
<rect fill="#fff7f3" height="19.225" width="154" y="50.7" x="0" style="fill:rgb(255, 247, 243);;animation:none"></rect>
<rect fill="#fde0dd" height="19.225" width="279" y="50.7" x="153" style="fill:rgb(253, 224, 221);;animation:none"></rect>
<rect fill="#fcc5c0" height="19.225" width="48" y="50.7" x="432" style="fill:rgb(252, 197, 192);;animation:none"></rect>
<rect fill="#fa9fb5" height="19.225" width="310" y="50.7" x="479" style="fill:rgb(250, 159, 181);;animation:none"></rect>
<rect fill="#f768a1" height="19.225" width="154" y="50.7" x="789" style="fill:rgb(247, 104, 161);;animation:none"></rect>
<rect fill="#dd3497" height="19.225" width="259" y="50.7" x="942" style="fill:rgb(221, 52, 151);;animation:none"></rect>
<rect fill="#ae017e" height="19.225" width="50" y="50.7" x="1201" style="fill:rgb(174, 1, 126);;animation:none"></rect>
<rect fill="#7a0177" height="19.225" width="182" y="50.7" x="1251" style="fill:rgb(122, 1, 119);;animation:none"></rect>
<rect fill="#49006a" height="19.225" width="168" y="50.7" x="1432" style="fill:rgb(73, 0, 106);;animation:none"></rect>
<rect fill="#fff7f3" height="19.225" width="199" y="67.9" x="0" style="fill:rgb(255, 247, 243);;animation:none"></rect>
<rect fill="#fde0dd" height="19.225" width="15" y="67.9" x="198" style="fill:rgb(253, 224, 221);;animation:none"></rect>
<rect fill="#fcc5c0" height="19.225" width="348" y="67.9" x="212" style="fill:rgb(252, 197, 192);;animation:none"></rect>
<rect fill="#fa9fb5" height="19.225" width="305" y="67.9" x="560" style="fill:rgb(250, 159, 181);;animation:none"></rect>
<rect fill="#f768a1" height="19.225" width="77" y="67.9" x="864" style="fill:rgb(247, 104, 161);;animation:none"></rect>
<rect fill="#dd3497" height="19.225" width="226" y="67.9" x="941" style="fill:rgb(221, 52, 151);;animation:none"></rect>
<rect fill="#ae017e" height="19.225" width="85" y="67.9" x="1166" style="fill:rgb(174, 1, 126);;animation:none"></rect>
<rect fill="#7a0177" height="19.225" width="170" y="67.9" x="1250" style="fill:rgb(122, 1, 119);;animation:none"></rect>
<rect fill="#49006a" height="19.225" width="180" y="67.9" x="1420" style="fill:rgb(73, 0, 106);;animation:none"></rect>
<rect fill="#fff7f3" height="19.225" width="111" y="85.1" x="0" style="fill:rgb(255, 247, 243);;animation:none"></rect>
<rect fill="#fde0dd" height="19.225" width="37" y="85.1" x="110" style="fill:rgb(253, 224, 221);;animation:none"></rect>
<rect fill="#fcc5c0" height="19.225" width="182" y="85.1" x="147" style="fill:rgb(252, 197, 192);;animation:none"></rect>
<rect fill="#fa9fb5" height="19.225" width="232" y="85.1" x="328" style="fill:rgb(250, 159, 181);;animation:none"></rect>
<rect fill="#f768a1" height="19.225" width="324" y="85.1" x="560" style="fill:rgb(247, 104, 161);;animation:none"></rect>
<rect fill="#dd3497" height="19.225" width="10" y="85.1" x="883" style="fill:rgb(221, 52, 151);;animation:none"></rect>
<rect fill="#ae017e" height="19.225" width="225" y="85.1" x="893" style="fill:rgb(174, 1, 126);;animation:none"></rect>
<rect fill="#7a0177" height="19.225" width="174" y="85.1" x="1118" style="fill:rgb(122, 1, 119);;animation:none"></rect>
<rect fill="#49006a" height="19.225" width="309" y="85.1" x="1291" style="fill:rgb(73, 0, 106);;animation:none"></rect>
<rect fill="#fff7f3" height="19.225" width="253" y="102.4" x="0" style="fill:rgb(255, 247, 243);;animation:none"></rect>
<rect fill="#fde0dd" height="19.225" width="298" y="102.4" x="252" style="fill:rgb(253, 224, 221);;animation:none"></rect>
<rect fill="#fcc5c0" height="19.225" width="193" y="102.4" x="550" style="fill:rgb(252, 197, 192);;animation:none"></rect>
<rect fill="#fa9fb5" height="19.225" width="243" y="102.4" x="742" style="fill:rgb(250, 159, 181);;animation:none"></rect>
<rect fill="#f768a1" height="19.225" width="224" y="102.4" x="984" style="fill:rgb(247, 104, 161);;animation:none"></rect>
<rect fill="#dd3497" height="19.225" width="130" y="102.4" x="1208" style="fill:rgb(221, 52, 151);;animation:none"></rect>
<rect fill="#ae017e" height="19.225" width="146" y="102.4" x="1337" style="fill:rgb(174, 1, 126);;animation:none"></rect>
<rect fill="#7a0177" height="19.225" width="79" y="102.4" x="1483" style="fill:rgb(122, 1, 119);;animation:none"></rect>
<rect fill="#49006a" height="19.225" width="38" y="102.4" x="1562" style="fill:rgb(73, 0, 106);;animation:none"></rect>
<rect fill="#fff7f3" height="19.225" width="380" y="119.6" x="0" style="fill:rgb(255, 247, 243);;animation:none"></rect>
<rect fill="#fde0dd" height="19.225" width="117" y="119.6" x="379" style="fill:rgb(253, 224, 221);;animation:none"></rect>
<rect fill="#fcc5c0" height="19.225" width="220" y="119.6" x="495" style="fill:rgb(252, 197, 192);;animation:none"></rect>
<rect fill="#fa9fb5" height="19.225" width="81" y="119.6" x="715" style="fill:rgb(250, 159, 181);;animation:none"></rect>
<rect fill="#f768a1" height="19.225" width="287" y="119.6" x="796" style="fill:rgb(247, 104, 161);;animation:none"></rect>
<rect fill="#dd3497" height="19.225" width="298" y="119.6" x="1083" style="fill:rgb(221, 52, 151);;animation:none"></rect>
<rect fill="#ae017e" height="19.225" width="96" y="119.6" x="1381" style="fill:rgb(174, 1, 126);;animation:none"></rect>
<rect fill="#7a0177" height="19.225" width="75" y="119.6" x="1476" style="fill:rgb(122, 1, 119);;animation:none"></rect>
<rect fill="#49006a" height="19.225" width="49" y="119.6" x="1551" style="fill:rgb(73, 0, 106);;animation:none"></rect>
<rect fill="#fff7f3" height="19.225" width="116" y="136.8" x="0" style="fill:rgb(255, 247, 243);;animation:none"></rect>
<rect fill="#fde0dd" height="19.225" width="250" y="136.8" x="115" style="fill:rgb(253, 224, 221);;animation:none"></rect>
<rect fill="#fcc5c0" height="19.225" width="258" y="136.8" x="364" style="fill:rgb(252, 197, 192);;animation:none"></rect>
<rect fill="#fa9fb5" height="19.225" width="117" y="136.8" x="621" style="fill:rgb(250, 159, 181);;animation:none"></rect>
<rect fill="#f768a1" height="19.225" width="132" y="136.8" x="738" style="fill:rgb(247, 104, 161);;animation:none"></rect>
<rect fill="#dd3497" height="19.225" width="236" y="136.8" x="870" style="fill:rgb(221, 52, 151);;animation:none"></rect>
<rect fill="#ae017e" height="19.225" width="86" y="136.8" x="1105" style="fill:rgb(174, 1, 126);;animation:none"></rect>
<rect fill="#7a0177" height="19.225" width="177" y="136.8" x="1190" style="fill:rgb(122, 1, 119);;animation:none"></rect>
<rect fill="#49006a" height="19.225" width="233" y="136.8" x="1367" style="fill:rgb(73, 0, 106);;animation:none"></rect>
<rect fill="#fff7f3" height="19.225" width="238" y="154" x="0" style="fill:rgb(255, 247, 243);;animation:none"></rect>
<rect fill="#fde0dd" height="19.225" width="272" y="154" x="237" style="fill:rgb(253, 224, 221);;animation:none"></rect>
<rect fill="#fcc5c0" height="19.225" width="116" y="154" x="509" style="fill:rgb(252, 197, 192);;animation:none"></rect>
<rect fill="#fa9fb5" height="19.225" width="38" y="154" x="624" style="fill:rgb(250, 159, 181);;animation:none"></rect>
<rect fill="#f768a1" height="19.225" width="138" y="154" x="662" style="fill:rgb(247, 104, 161);;animation:none"></rect>
<rect fill="#dd3497" height="19.225" width="52" y="154" x="799" style="fill:rgb(221, 52, 151);;animation:none"></rect>
<rect fill="#ae017e" height="19.225" width="264" y="154" x="851" style="fill:rgb(174, 1, 126);;animation:none"></rect>
<rect fill="#7a0177" height="19.225" width="173" y="154" x="1114" style="fill:rgb(122, 1, 119);;animation:none"></rect>
<rect fill="#49006a" height="19.225" width="313" y="154" x="1287" style="fill:rgb(73, 0, 106);;animation:none"></rect>
<rect fill="#fff7f3" height="19.225" width="42" y="171.3" x="0" style="fill:rgb(255, 247, 243);;animation:none"></rect>
<rect fill="#fde0dd" height="19.225" width="213" y="171.3" x="41" style="fill:rgb(253, 224, 221);;animation:none"></rect>
<rect fill="#fcc5c0" height="19.225" width="236" y="171.3" x="254" style="fill:rgb(252, 197, 192);;animation:none"></rect>
<rect fill="#fa9fb5" height="19.225" width="99" y="171.3" x="490" style="fill:rgb(250, 159, 181);;animation:none"></rect>
<rect fill="#f768a1" height="19.225" width="220" y="171.3" x="588" style="fill:rgb(247, 104, 161);;animation:none"></rect>
<rect fill="#dd3497" height="19.225" width="69" y="171.3" x="807" style="fill:rgb(221, 52, 151);;animation:none"></rect>
<rect fill="#ae017e" height="19.225" width="208" y="171.3" x="875" style="fill:rgb(174, 1, 126);;animation:none"></rect>
<rect fill="#7a0177" height="19.225" width="252" y="171.3" x="1083" style="fill:rgb(122, 1, 119);;animation:none"></rect>
<rect fill="#49006a" height="19.225" width="266" y="171.3" x="1334" style="fill:rgb(73, 0, 106);;animation:none"></rect>
<rect fill="#fff7f3" height="19.225" width="274" y="188.5" x="0" style="fill:rgb(255, 247, 243);;animation:none"></rect>
<rect fill="#fde0dd" height="19.225" width="159" y="188.5" x="273" style="fill:rgb(253, 224, 221);;animation:none"></rect>
<rect fill="#fcc5c0" height="19.225" width="176" y="188.5" x="432" style="fill:rgb(252, 197, 192);;animation:none"></rect>
<rect fill="#fa9fb5" height="19.225" width="159" y="188.5" x="607" style="fill:rgb(250, 159, 181);;animation:none"></rect>
<rect fill="#f768a1" height="19.225" width="48" y="188.5" x="765" style="fill:rgb(247, 104, 161);;animation:none"></rect>
<rect fill="#dd3497" height="19.225" width="234" y="188.5" x="813" style="fill:rgb(221, 52, 151);;animation:none"></rect>
<rect fill="#ae017e" height="19.225" width="162" y="188.5" x="1047" style="fill:rgb(174, 1, 126);;animation:none"></rect>
<rect fill="#7a0177" height="19.225" width="315" y="188.5" x="1208" style="fill:rgb(122, 1, 119);;animation:none"></rect>
<rect fill="#49006a" height="19.225" width="77" y="188.5" x="1523" style="fill:rgb(73, 0, 106);;animation:none"></rect>
<rect fill="#fff7f3" height="19.225" width="221" y="205.7" x="0" style="fill:rgb(255, 247, 243);;animation:none"></rect>
<rect fill="#fde0dd" height="19.225" width="131" y="205.7" x="220" style="fill:rgb(253, 224, 221);;animation:none"></rect>
<rect fill="#fcc5c0" height="19.225" width="96" y="205.7" x="350" style="fill:rgb(252, 197, 192);;animation:none"></rect>
<rect fill="#fa9fb5" height="19.225" width="157" y="205.7" x="446" style="fill:rgb(250, 159, 181);;animation:none"></rect>
<rect fill="#f768a1" height="19.225" width="209" y="205.7" x="603" style="fill:rgb(247, 104, 161);;animation:none"></rect>
<rect fill="#dd3497" height="19.225" width="220" y="205.7" x="811" style="fill:rgb(221, 52, 151);;animation:none"></rect>
<rect fill="#ae017e" height="19.225" width="222" y="205.7" x="1031" style="fill:rgb(174, 1, 126);;animation:none"></rect>
<rect fill="#7a0177" height="19.225" width="162" y="205.7" x="1252" style="fill:rgb(122, 1, 119);;animation:none"></rect>
<rect fill="#49006a" height="19.225" width="186" y="205.7" x="1414" style="fill:rgb(73, 0, 106);;animation:none"></rect>
<rect fill="#fff7f3" height="19.225" width="67" y="222.9" x="0" style="fill:rgb(255, 247, 243);;animation:none"></rect>
<rect fill="#fde0dd" height="19.225" width="226" y="222.9" x="66" style="fill:rgb(253, 224, 221);;animation:none"></rect>
<rect fill="#fcc5c0" height="19.225" width="121" y="222.9" x="291" style="fill:rgb(252, 197, 192);;animation:none"></rect>
<rect fill="#fa9fb5" height="19.225" width="192" y="222.9" x="412" style="fill:rgb(250, 159, 181);;animation:none"></rect>
<rect fill="#f768a1" height="19.225" width="110" y="222.9" x="603" style="fill:rgb(247, 104, 161);;animation:none"></rect>
<rect fill="#dd3497" height="19.225" width="201" y="222.9" x="712" style="fill:rgb(221, 52, 151);;animation:none"></rect>
<rect fill="#ae017e" height="19.225" width="196" y="222.9" x="913" style="fill:rgb(174, 1, 126);;animation:none"></rect>
<rect fill="#7a0177" height="19.225" width="208" y="222.9" x="1108" style="fill:rgb(122, 1, 119);;animation:none"></rect>
<rect fill="#49006a" height="19.225" width="285" y="222.9" x="1315" style="fill:rgb(73, 0, 106);;animation:none"></rect>
<rect fill="#fff7f3" height="19.225" width="122" y="240.2" x="0" style="fill:rgb(255, 247, 243);;animation:none"></rect>
<rect fill="#fde0dd" height="19.225" width="147" y="240.2" x="121" style="fill:rgb(253, 224, 221);;animation:none"></rect>
<rect fill="#fcc5c0" height="19.225" width="238" y="240.2" x="268" style="fill:rgb(252, 197, 192);;animation:none"></rect>
<rect fill="#fa9fb5" height="19.225" width="289" y="240.2" x="505" style="fill:rgb(250, 159, 181);;animation:none"></rect>
<rect fill="#f768a1" height="19.225" width="88" y="240.2" x="793" style="fill:rgb(247, 104, 161);;animation:none"></rect>
<rect fill="#dd3497" height="19.225" width="230" y="240.2" x="881" style="fill:rgb(221, 52, 151);;animation:none"></rect>
<rect fill="#ae017e" height="19.225" width="181" y="240.2" x="1110" style="fill:rgb(174, 1, 126);;animation:none"></rect>
<rect fill="#7a0177" height="19.225" width="209" y="240.2" x="1291" style="fill:rgb(122, 1, 119);;animation:none"></rect>
<rect fill="#49006a" height="19.225" width="100" y="240.2" x="1500" style="fill:rgb(73, 0, 106);;animation:none"></rect>
<rect fill="#fff7f3" height="19.225" width="55" y="257.4" x="0" style="fill:rgb(255, 247, 243);;animation:none"></rect>
<rect fill="#fde0dd" height="19.225" width="389" y="257.4" x="54" style="fill:rgb(253, 224, 221);;animation:none"></rect>
<rect fill="#fcc5c0" height="19.225" width="146" y="257.4" x="442" style="fill:rgb(252, 197, 192);;animation:none"></rect>
<rect fill="#fa9fb5" height="19.225" width="70" y="257.4" x="587" style="fill:rgb(250, 159, 181);;animation:none"></rect>
<rect fill="#f768a1" height="19.225" width="147" y="257.4" x="657" style="fill:rgb(247, 104, 161);;animation:none"></rect>
<rect fill="#dd3497" height="19.225" width="481" y="257.4" x="803" style="fill:rgb(221, 52, 151);;animation:none"></rect>
<rect fill="#ae017e" height="19.225" width="263" y="257.4" x="1283" style="fill:rgb(174, 1, 126);;animation:none"></rect>
<rect fill="#7a0177" height="19.225" width="39" y="257.4" x="1546" style="fill:rgb(122, 1, 119);;animation:none"></rect>
<rect fill="#49006a" height="19.225" width="15" y="257.4" x="1585" style="fill:rgb(73, 0, 106);;animation:none"></rect>
<rect fill="#fff7f3" height="19.225" width="117" y="274.6" x="0" style="fill:rgb(255, 247, 243);;animation:none"></rect>
<rect fill="#fde0dd" height="19.225" width="364" y="274.6" x="116" style="fill:rgb(253, 224, 221);;animation:none"></rect>
<rect fill="#fcc5c0" height="19.225" width="94" y="274.6" x="480" style="fill:rgb(252, 197, 192);;animation:none"></rect>
<rect fill="#fa9fb5" height="19.225" width="55" y="274.6" x="573" style="fill:rgb(250, 159, 181);;animation:none"></rect>
<rect fill="#f768a1" height="19.225" width="203" y="274.6" x="628" style="fill:rgb(247, 104, 161);;animation:none"></rect>
<rect fill="#dd3497" height="19.225" width="138" y="274.6" x="830" style="fill:rgb(221, 52, 151);;animation:none"></rect>
<rect fill="#ae017e" height="19.225" width="76" y="274.6" x="967" style="fill:rgb(174, 1, 126);;animation:none"></rect>
<rect fill="#7a0177" height="19.225" width="224" y="274.6" x="1043" style="fill:rgb(122, 1, 119);;animation:none"></rect>
<rect fill="#49006a" height="19.225" width="333" y="274.6" x="1267" style="fill:rgb(73, 0, 106);;animation:none"></rect>
<rect fill="#fff7f3" height="19.225" width="288" y="291.8" x="0" style="fill:rgb(255, 247, 243);;animation:none"></rect>
<rect fill="#fde0dd" height="19.225" width="206" y="291.8" x="287" style="fill:rgb(253, 224, 221);;animation:none"></rect>
<rect fill="#fcc5c0" height="19.225" width="140" y="291.8" x="493" style="fill:rgb(252, 197, 192);;animation:none"></rect>
<rect fill="#fa9fb5" height="19.225" width="32" y="291.8" x="633" style="fill:rgb(250, 159, 181);;animation:none"></rect>
<rect fill="#f768a1" height="19.225" width="125" y="291.8" x="664" style="fill:rgb(247, 104, 161);;animation:none"></rect>
<rect fill="#dd3497" height="19.225" width="291" y="291.8" x="789" style="fill:rgb(221, 52, 151);;animation:none"></rect>
<rect fill="#ae017e" height="19.225" width="68" y="291.8" x="1080" style="fill:rgb(174, 1, 126);;animation:none"></rect>
<rect fill="#7a0177" height="19.225" width="263" y="291.8" x="1147" style="fill:rgb(122, 1, 119);;animation:none"></rect>
<rect fill="#49006a" height="19.225" width="190" y="291.8" x="1410" style="fill:rgb(73, 0, 106);;animation:none"></rect>
<rect fill="#fff7f3" height="19.225" width="97" y="309.1" x="0" style="fill:rgb(255, 247, 243);;animation:none"></rect>
<rect fill="#fde0dd" height="19.225" width="112" y="309.1" x="96" style="fill:rgb(253, 224, 221);;animation:none"></rect>
<rect fill="#fcc5c0" height="19.225" width="32" y="309.1" x="207" style="fill:rgb(252, 197, 192);;animation:none"></rect>
<rect fill="#fa9fb5" height="19.225" width="110" y="309.1" x="239" style="fill:rgb(250, 159, 181);;animation:none"></rect>
<rect fill="#f768a1" height="19.225" width="351" y="309.1" x="348" style="fill:rgb(247, 104, 161);;animation:none"></rect>
<rect fill="#dd3497" height="19.225" width="156" y="309.1" x="699" style="fill:rgb(221, 52, 151);;animation:none"></rect>
<rect fill="#ae017e" height="19.225" width="381" y="309.1" x="854" style="fill:rgb(174, 1, 126);;animation:none"></rect>
<rect fill="#7a0177" height="19.225" width="227" y="309.1" x="1235" style="fill:rgb(122, 1, 119);;animation:none"></rect>
<rect fill="#49006a" height="19.225" width="138" y="309.1" x="1462" style="fill:rgb(73, 0, 106);;animation:none"></rect>
<rect fill="#fff7f3" height="19.225" width="103" y="326.3" x="0" style="fill:rgb(255, 247, 243);;animation:none"></rect>
<rect fill="#fde0dd" height="19.225" width="130" y="326.3" x="102" style="fill:rgb(253, 224, 221);;animation:none"></rect>
<rect fill="#fcc5c0" height="19.225" width="312" y="326.3" x="231" style="fill:rgb(252, 197, 192);;animation:none"></rect>
<rect fill="#fa9fb5" height="19.225" width="56" y="326.3" x="543" style="fill:rgb(250, 159, 181);;animation:none"></rect>
<rect fill="#f768a1" height="19.225" width="127" y="326.3" x="598" style="fill:rgb(247, 104, 161);;animation:none"></rect>
<rect fill="#dd3497" height="19.225" width="209" y="326.3" x="725" style="fill:rgb(221, 52, 151);;animation:none"></rect>
<rect fill="#ae017e" height="19.225" width="274" y="326.3" x="934" style="fill:rgb(174, 1, 126);;animation:none"></rect>
<rect fill="#7a0177" height="19.225" width="256" y="326.3" x="1207" style="fill:rgb(122, 1, 119);;animation:none"></rect>
<rect fill="#49006a" height="19.225" width="137" y="326.3" x="1463" style="fill:rgb(73, 0, 106);;animation:none"></rect>
<rect fill="#fff7f3" height="19.225" width="344" y="343.5" x="0" style="fill:rgb(255, 247, 243);;animation:none"></rect>
<rect fill="#fde0dd" height="19.225" width="149" y="343.5" x="343" style="fill:rgb(253, 224, 221);;animation:none"></rect>
<rect fill="#fcc5c0" height="19.225" width="106" y="343.5" x="492" style="fill:rgb(252, 197, 192);;animation:none"></rect>
<rect fill="#fa9fb5" height="19.225" width="117" y="343.5" x="597" style="fill:rgb(250, 159, 181);;animation:none"></rect>
<rect fill="#f768a1" height="19.225" width="71" y="343.5" x="713" style="fill:rgb(247, 104, 161);;animation:none"></rect>
<rect fill="#dd3497" height="19.225" width="355" y="343.5" x="784" style="fill:rgb(221, 52, 151);;animation:none"></rect>
<rect fill="#ae017e" height="19.225" width="90" y="343.5" x="1138" style="fill:rgb(174, 1, 126);;animation:none"></rect>
<rect fill="#7a0177" height="19.225" width="292" y="343.5" x="1227" style="fill:rgb(122, 1, 119);;animation:none"></rect>
<rect fill="#49006a" height="19.225" width="81" y="343.5" x="1519" style="fill:rgb(73, 0, 106);;animation:none"></rect>
<rect fill="#fff7f3" height="19.225" width="247" y="360.7" x="0" style="fill:rgb(255, 247, 243);;animation:none"></rect>
<rect fill="#fde0dd" height="19.225" width="66" y="360.7" x="246" style="fill:rgb(253, 224, 221);;animation:none"></rect>
<rect fill="#fcc5c0" height="19.225" width="86" y="360.7" x="312" style="fill:rgb(252, 197, 192);;animation:none"></rect>
<rect fill="#fa9fb5" height="19.225" width="90" y="360.7" x="397" style="fill:rgb(250, 159, 181);;animation:none"></rect>
<rect fill="#f768a1" height="19.225" width="203" y="360.7" x="486" style="fill:rgb(247, 104, 161);;animation:none"></rect>
<rect fill="#dd3497" height="19.225" width="223" y="360.7" x="689" style="fill:rgb(221, 52, 151);;animation:none"></rect>
<rect fill="#ae017e" height="19.225" width="241" y="360.7" x="912" style="fill:rgb(174, 1, 126);;animation:none"></rect>
<rect fill="#7a0177" height="19.225" width="164" y="360.7" x="1153" style="fill:rgb(122, 1, 119);;animation:none"></rect>
<rect fill="#49006a" height="19.225" width="284" y="360.7" x="1316" style="fill:rgb(73, 0, 106);;animation:none"></rect>
<rect fill="#fff7f3" height="19.225" width="180" y="378" x="0" style="fill:rgb(255, 247, 243);;animation:none"></rect>
<rect fill="#fde0dd" height="19.225" width="112" y="378" x="179" style="fill:rgb(253, 224, 221);;animation:none"></rect>
<rect fill="#fcc5c0" height="19.225" width="248" y="378" x="290" style="fill:rgb(252, 197, 192);;animation:none"></rect>
<rect fill="#fa9fb5" height="19.225" width="144" y="378" x="537" style="fill:rgb(250, 159, 181);;animation:none"></rect>
<rect fill="#f768a1" height="19.225" width="354" y="378" x="681" style="fill:rgb(247, 104, 161);;animation:none"></rect>
<rect fill="#dd3497" height="19.225" width="155" y="378" x="1034" style="fill:rgb(221, 52, 151);;animation:none"></rect>
<rect fill="#ae017e" height="19.225" width="62" y="378" x="1189" style="fill:rgb(174, 1, 126);;animation:none"></rect>
<rect fill="#7a0177" height="19.225" width="246" y="378" x="1250" style="fill:rgb(122, 1, 119);;animation:none"></rect>
<rect fill="#49006a" height="19.225" width="104" y="378" x="1496" style="fill:rgb(73, 0, 106);;animation:none"></rect>
<rect fill="#fff7f3" height="19.225" width="39" y="395.2" x="0" style="fill:rgb(255, 247, 243);;animation:none"></rect>
<rect fill="#fde0dd" height="19.225" width="308" y="395.2" x="38" style="fill:rgb(253, 224, 221);;animation:none"></rect>
<rect fill="#fcc5c0" height="19.225" width="256" y="395.2" x="346" style="fill:rgb(252, 197, 192);;animation:none"></rect>
<rect fill="#fa9fb5" height="19.225" width="73" y="395.2" x="601" style="fill:rgb(250, 159, 181);;animation:none"></rect>
<rect fill="#f768a1" height="19.225" width="217" y="395.2" x="674" style="fill:rgb(247, 104, 161);;animation:none"></rect>
<rect fill="#dd3497" height="19.225" width="135" y="395.2" x="890" style="fill:rgb(221, 52, 151);;animation:none"></rect>
<rect fill="#ae017e" height="19.225" width="122" y="395.2" x="1025" style="fill:rgb(174, 1, 126);;animation:none"></rect>
<rect fill="#7a0177" height="19.225" width="270" y="395.2" x="1146" style="fill:rgb(122, 1, 119);;animation:none"></rect>
<rect fill="#49006a" height="19.225" width="185" y="395.2" x="1415" style="fill:rgb(73, 0, 106);;animation:none"></rect>
<rect fill="#fff7f3" height="19.225" width="155" y="412.4" x="0" style="fill:rgb(255, 247, 243);;animation:none"></rect>
<rect fill="#fde0dd" height="19.225" width="12" y="412.4" x="154" style="fill:rgb(253, 224, 221);;animation:none"></rect>
<rect fill="#fcc5c0" height="19.225" width="230" y="412.4" x="166" style="fill:rgb(252, 197, 192);;animation:none"></rect>
<rect fill="#fa9fb5" height="19.225" width="167" y="412.4" x="395" style="fill:rgb(250, 159, 181);;animation:none"></rect>
<rect fill="#f768a1" height="19.225" width="243" y="412.4" x="562" style="fill:rgb(247, 104, 161);;animation:none"></rect>
<rect fill="#dd3497" height="19.225" width="158" y="412.4" x="805" style="fill:rgb(221, 52, 151);;animation:none"></rect>
<rect fill="#ae017e" height="19.225" width="175" y="412.4" x="962" style="fill:rgb(174, 1, 126);;animation:none"></rect>
<rect fill="#7a0177" height="19.225" width="182" y="412.4" x="1137" style="fill:rgb(122, 1, 119);;animation:none"></rect>
<rect fill="#49006a" height="19.225" width="281" y="412.4" x="1319" style="fill:rgb(73, 0, 106);;animation:none"></rect>
<rect fill="#fff7f3" height="19.225" width="287" y="429.6" x="0" style="fill:rgb(255, 247, 243);;animation:none"></rect>
<rect fill="#fde0dd" height="19.225" width="47" y="429.6" x="286" style="fill:rgb(253, 224, 221);;animation:none"></rect>
<rect fill="#fcc5c0" height="19.225" width="296" y="429.6" x="332" style="fill:rgb(252, 197, 192);;animation:none"></rect>
<rect fill="#fa9fb5" height="19.225" width="245" y="429.6" x="628" style="fill:rgb(250, 159, 181);;animation:none"></rect>
<rect fill="#f768a1" height="19.225" width="246" y="429.6" x="873" style="fill:rgb(247, 104, 161);;animation:none"></rect>
<rect fill="#dd3497" height="19.225" width="158" y="429.6" x="1118" style="fill:rgb(221, 52, 151);;animation:none"></rect>
<rect fill="#ae017e" height="19.225" width="55" y="429.6" x="1276" style="fill:rgb(174, 1, 126);;animation:none"></rect>
<rect fill="#7a0177" height="19.225" width="92" y="429.6" x="1331" style="fill:rgb(122, 1, 119);;animation:none"></rect>
<rect fill="#49006a" height="19.225" width="178" y="429.6" x="1422" style="fill:rgb(73, 0, 106);;animation:none"></rect>
<rect fill="#fff7f3" height="19.225" width="126" y="446.9" x="0" style="fill:rgb(255, 247, 243);;animation:none"></rect>
<rect fill="#fde0dd" height="19.225" width="138" y="446.9" x="125" style="fill:rgb(253, 224, 221);;animation:none"></rect>
<rect fill="#fcc5c0" height="19.225" width="122" y="446.9" x="263" style="fill:rgb(252, 197, 192);;animation:none"></rect>
<rect fill="#fa9fb5" height="19.225" width="324" y="446.9" x="384" style="fill:rgb(250, 159, 181);;animation:none"></rect>
<rect fill="#f768a1" height="19.225" width="76" y="446.9" x="708" style="fill:rgb(247, 104, 161);;animation:none"></rect>
<rect fill="#dd3497" height="19.225" width="154" y="446.9" x="784" style="fill:rgb(221, 52, 151);;animation:none"></rect>
<rect fill="#ae017e" height="19.225" width="278" y="446.9" x="938" style="fill:rgb(174, 1, 126);;animation:none"></rect>
<rect fill="#7a0177" height="19.225" width="242" y="446.9" x="1215" style="fill:rgb(122, 1, 119);;animation:none"></rect>
<rect fill="#49006a" height="19.225" width="143" y="446.9" x="1457" style="fill:rgb(73, 0, 106);;animation:none"></rect>
<rect fill="#fff7f3" height="19.225" width="98" y="464.1" x="0" style="fill:rgb(255, 247, 243);;animation:none"></rect>
<rect fill="#fde0dd" height="19.225" width="56" y="464.1" x="97" style="fill:rgb(253, 224, 221);;animation:none"></rect>
<rect fill="#fcc5c0" height="19.225" width="167" y="464.1" x="153" style="fill:rgb(252, 197, 192);;animation:none"></rect>
<rect fill="#fa9fb5" height="19.225" width="239" y="464.1" x="320" style="fill:rgb(250, 159, 181);;animation:none"></rect>
<rect fill="#f768a1" height="19.225" width="265" y="464.1" x="558" style="fill:rgb(247, 104, 161);;animation:none"></rect>
<rect fill="#dd3497" height="19.225" width="102" y="464.1" x="823" style="fill:rgb(221, 52, 151);;animation:none"></rect>
<rect fill="#ae017e" height="19.225" width="293" y="464.1" x="924" style="fill:rgb(174, 1, 126);;animation:none"></rect>
<rect fill="#7a0177" height="19.225" width="116" y="464.1" x="1217" style="fill:rgb(122, 1, 119);;animation:none"></rect>
<rect fill="#49006a" height="19.225" width="268" y="464.1" x="1332" style="fill:rgb(73, 0, 106);;animation:none"></rect>
<rect fill="#fff7f3" height="19.225" width="298" y="481.3" x="0" style="fill:rgb(255, 247, 243);;animation:none"></rect>
<rect fill="#fde0dd" height="19.225" width="333" y="481.3" x="297" style="fill:rgb(253, 224, 221);;animation:none"></rect>
<rect fill="#fcc5c0" height="19.225" width="45" y="481.3" x="629" style="fill:rgb(252, 197, 192);;animation:none"></rect>
<rect fill="#fa9fb5" height="19.225" width="94" y="481.3" x="673" style="fill:rgb(250, 159, 181);;animation:none"></rect>
<rect fill="#f768a1" height="19.225" width="130" y="481.3" x="767" style="fill:rgb(247, 104, 161);;animation:none"></rect>
<rect fill="#dd3497" height="19.225" width="93" y="481.3" x="896" style="fill:rgb(221, 52, 151);;animation:none"></rect>
<rect fill="#ae017e" height="19.225" width="105" y="481.3" x="989" style="fill:rgb(174, 1, 126);;animation:none"></rect>
<rect fill="#7a0177" height="19.225" width="205" y="481.3" x="1094" style="fill:rgb(122, 1, 119);;animation:none"></rect>
<rect fill="#49006a" height="19.225" width="302" y="481.3" x="1298" style="fill:rgb(73, 0, 106);;animation:none"></rect>
<rect fill="#fff7f3" height="19.225" width="145" y="498.5" x="0" style="fill:rgb(255, 247, 243);;animation:none"></rect>
<rect fill="#fde0dd" height="19.225" width="69" y="498.5" x="144" style="fill:rgb(253, 224, 221);;animation:none"></rect>
<rect fill="#fcc5c0" height="19.225" width="228" y="498.5" x="212" style="fill:rgb(252, 197, 192);;animation:none"></rect>
<rect fill="#fa9fb5" height="19.225" width="212" y="498.5" x="440" style="fill:rgb(250, 159, 181);;animation:none"></rect>
<rect fill="#f768a1" height="19.225" width="97" y="498.5" x="652" style="fill:rgb(247, 104, 161);;animation:none"></rect>
<rect fill="#dd3497" height="19.225" width="203" y="498.5" x="748" style="fill:rgb(221, 52, 151);;animation:none"></rect>
<rect fill="#ae017e" height="19.225" width="243" y="498.5" x="951" style="fill:rgb(174, 1, 126);;animation:none"></rect>
<rect fill="#7a0177" height="19.225" width="194" y="498.5" x="1193" style="fill:rgb(122, 1, 119);;animation:none"></rect>
<rect fill="#49006a" height="19.225" width="214" y="498.5" x="1386" style="fill:rgb(73, 0, 106);;animation:none"></rect>
<rect fill="#fff7f3" height="19.225" width="208" y="515.8" x="0" style="fill:rgb(255, 247, 243);;animation:none"></rect>
<rect fill="#fde0dd" height="19.225" width="70" y="515.8" x="207" style="fill:rgb(253, 224, 221);;animation:none"></rect>
<rect fill="#fcc5c0" height="19.225" width="138" y="515.8" x="276" style="fill:rgb(252, 197, 192);;animation:none"></rect>
<rect fill="#fa9fb5" height="19.225" width="52" y="515.8" x="414" style="fill:rgb(250, 159, 181);;animation:none"></rect>
<rect fill="#f768a1" height="19.225" width="330" y="515.8" x="465" style="fill:rgb(247, 104, 161);;animation:none"></rect>
<rect fill="#dd3497" height="19.225" width="117" y="515.8" x="795" style="fill:rgb(221, 52, 151);;animation:none"></rect>
<rect fill="#ae017e" height="19.225" width="325" y="515.8" x="912" style="fill:rgb(174, 1, 126);;animation:none"></rect>
<rect fill="#7a0177" height="19.225" width="143" y="515.8" x="1236" style="fill:rgb(122, 1, 119);;animation:none"></rect>
<rect fill="#49006a" height="19.225" width="222" y="515.8" x="1378" style="fill:rgb(73, 0, 106);;animation:none"></rect>
<rect fill="#fff7f3" height="19.225" width="81" y="533" x="0" style="fill:rgb(255, 247, 243);;animation:none"></rect>
<rect fill="#fde0dd" height="19.225" width="319" y="533" x="80" style="fill:rgb(253, 224, 221);;animation:none"></rect>
<rect fill="#fcc5c0" height="19.225" width="242" y="533" x="399" style="fill:rgb(252, 197, 192);;animation:none"></rect>
<rect fill="#fa9fb5" height="19.225" width="64" y="533" x="640" style="fill:rgb(250, 159, 181);;animation:none"></rect>
<rect fill="#f768a1" height="19.225" width="74" y="533" x="703" style="fill:rgb(247, 104, 161);;animation:none"></rect>
<rect fill="#dd3497" height="19.225" width="285" y="533" x="776" style="fill:rgb(221, 52, 151);;animation:none"></rect>
<rect fill="#ae017e" height="19.225" width="259" y="533" x="1061" style="fill:rgb(174, 1, 126);;animation:none"></rect>
<rect fill="#7a0177" height="19.225" width="154" y="533" x="1319" style="fill:rgb(122, 1, 119);;animation:none"></rect>
<rect fill="#49006a" height="19.225" width="127" y="533" x="1473" style="fill:rgb(73, 0, 106);;animation:none"></rect>
<rect fill="#fff7f3" height="19.225" width="350" y="550.2" x="0" style="fill:rgb(255, 247, 243);;animation:none"></rect>
<rect fill="#fde0dd" height="19.225" width="115" y="550.2" x="349" style="fill:rgb(253, 224, 221);;animation:none"></rect>
<rect fill="#fcc5c0" height="19.225" width="33" y="550.2" x="464" style="fill:rgb(252, 197, 192);;animation:none"></rect>
<rect fill="#fa9fb5" height="19.225" width="191" y="550.2" x="496" style="fill:rgb(250, 159, 181);;animation:none"></rect>
<rect fill="#f768a1" height="19.225" width="252" y="550.2" x="687" style="fill:rgb(247, 104, 161);;animation:none"></rect>
<rect fill="#dd3497" height="19.225" width="103" y="550.2" x="939" style="fill:rgb(221, 52, 151);;animation:none"></rect>
<rect fill="#ae017e" height="19.225" width="219" y="550.2" x="1041" style="fill:rgb(174, 1, 126);;animation:none"></rect>
<rect fill="#7a0177" height="19.225" width="179" y="550.2" x="1260" style="fill:rgb(122, 1, 119);;animation:none"></rect>
<rect fill="#49006a" height="19.225" width="161" y="550.2" x="1439" style="fill:rgb(73, 0, 106);;animation:none"></rect>
<rect fill="#fff7f3" height="19.225" width="95" y="567.4" x="0" style="fill:rgb(255, 247, 243);;animation:none"></rect>
<rect fill="#fde0dd" height="19.225" width="57" y="567.4" x="94" style="fill:rgb(253, 224, 221);;animation:none"></rect>
<rect fill="#fcc5c0" height="19.225" width="152" y="567.4" x="151" style="fill:rgb(252, 197, 192);;animation:none"></rect>
<rect fill="#fa9fb5" height="19.225" width="139" y="567.4" x="303" style="fill:rgb(250, 159, 181);;animation:none"></rect>
<rect fill="#f768a1" height="19.225" width="278" y="567.4" x="441" style="fill:rgb(247, 104, 161);;animation:none"></rect>
<rect fill="#dd3497" height="19.225" width="237" y="567.4" x="719" style="fill:rgb(221, 52, 151);;animation:none"></rect>
<rect fill="#ae017e" height="19.225" width="255" y="567.4" x="956" style="fill:rgb(174, 1, 126);;animation:none"></rect>
<rect fill="#7a0177" height="19.225" width="89" y="567.4" x="1210" style="fill:rgb(122, 1, 119);;animation:none"></rect>
<rect fill="#49006a" height="19.225" width="302" y="567.4" x="1298" style="fill:rgb(73, 0, 106);;animation:none"></rect>
<rect fill="#fff7f3" height="19.225" width="262" y="584.7" x="0" style="fill:rgb(255, 247, 243);;animation:none"></rect>
<rect fill="#fde0dd" height="19.225" width="152" y="584.7" x="261" style="fill:rgb(253, 224, 221);;animation:none"></rect>
<rect fill="#fcc5c0" height="19.225" width="66" y="584.7" x="413" style="fill:rgb(252, 197, 192);;animation:none"></rect>
<rect fill="#fa9fb5" height="19.225" width="44" y="584.7" x="478" style="fill:rgb(250, 159, 181);;animation:none"></rect>
<rect fill="#f768a1" height="19.225" width="172" y="584.7" x="521" style="fill:rgb(247, 104, 161);;animation:none"></rect>
<rect fill="#dd3497" height="19.225" width="271" y="584.7" x="692" style="fill:rgb(221, 52, 151);;animation:none"></rect>
<rect fill="#ae017e" height="19.225" width="151" y="584.7" x="963" style="fill:rgb(174, 1, 126);;animation:none"></rect>
<rect fill="#7a0177" height="19.225" width="278" y="584.7" x="1113" style="fill:rgb(122, 1, 119);;animation:none"></rect>
<rect fill="#49006a" height="19.225" width="209" y="584.7" x="1391" style="fill:rgb(73, 0, 106);;animation:none"></rect>
<rect fill="#fff7f3" height="19.225" width="257" y="601.9" x="0" style="fill:rgb(255, 247, 243);;animation:none"></rect>
<rect fill="#fde0dd" height="19.225" width="170" y="601.9" x="256" style="fill:rgb(253, 224, 221);;animation:none"></rect>
<rect fill="#fcc5c0" height="19.225" width="186" y="601.9" x="425" style="fill:rgb(252, 197, 192);;animation:none"></rect>
<rect fill="#fa9fb5" height="19.225" width="128" y="601.9" x="610" style="fill:rgb(250, 159, 181);;animation:none"></rect>
<rect fill="#f768a1" height="19.225" width="98" y="601.9" x="738" style="fill:rgb(247, 104, 161);;animation:none"></rect>
<rect fill="#dd3497" height="19.225" width="93" y="601.9" x="835" style="fill:rgb(221, 52, 151);;animation:none"></rect>
<rect fill="#ae017e" height="19.225" width="271" y="601.9" x="928" style="fill:rgb(174, 1, 126);;animation:none"></rect>
<rect fill="#7a0177" height="19.225" width="249" y="601.9" x="1198" style="fill:rgb(122, 1, 119);;animation:none"></rect>
<rect fill="#49006a" height="19.225" width="153" y="601.9" x="1447" style="fill:rgb(73, 0, 106);;animation:none"></rect>
<rect fill="#fff7f3" height="19.225" width="149" y="619.1" x="0" style="fill:rgb(255, 247, 243);;animation:none"></rect>
<rect fill="#fde0dd" height="19.225" width="183" y="619.1" x="148" style="fill:rgb(253, 224, 221);;animation:none"></rect>
<rect fill="#fcc5c0" height="19.225" width="235" y="619.1" x="331" style="fill:rgb(252, 197, 192);;animation:none"></rect>
<rect fill="#fa9fb5" height="19.225" width="158" y="619.1" x="566" style="fill:rgb(250, 159, 181);;animation:none"></rect>
<rect fill="#f768a1" height="19.225" width="83" y="619.1" x="724" style="fill:rgb(247, 104, 161);;animation:none"></rect>
<rect fill="#dd3497" height="19.225" width="280" y="619.1" x="806" style="fill:rgb(221, 52, 151);;animation:none"></rect>
<rect fill="#ae017e" height="19.225" width="174" y="619.1" x="1086" style="fill:rgb(174, 1, 126);;animation:none"></rect>
<rect fill="#7a0177" height="19.225" width="118" y="619.1" x="1259" style="fill:rgb(122, 1, 119);;animation:none"></rect>
<rect fill="#49006a" height="19.225" width="223" y="619.1" x="1377" style="fill:rgb(73, 0, 106);;animation:none"></rect>
<rect fill="#fff7f3" height="19.225" width="61" y="636.3" x="0" style="fill:rgb(255, 247, 243);;animation:none"></rect>
<rect fill="#fde0dd" height="19.225" width="295" y="636.3" x="60" style="fill:rgb(253, 224, 221);;animation:none"></rect>
<rect fill="#fcc5c0" height="19.225" width="195" y="636.3" x="354" style="fill:rgb(252, 197, 192);;animation:none"></rect>
<rect fill="#fa9fb5" height="19.225" width="176" y="636.3" x="549" style="fill:rgb(250, 159, 181);;animation:none"></rect>
<rect fill="#f768a1" height="19.225" width="121" y="636.3" x="725" style="fill:rgb(247, 104, 161);;animation:none"></rect>
<rect fill="#dd3497" height="19.225" width="182" y="636.3" x="846" style="fill:rgb(221, 52, 151);;animation:none"></rect>
<rect fill="#ae017e" height="19.225" width="250" y="636.3" x="1027" style="fill:rgb(174, 1, 126);;animation:none"></rect>
<rect fill="#7a0177" height="19.225" width="248" y="636.3" x="1276" style="fill:rgb(122, 1, 119);;animation:none"></rect>
<rect fill="#49006a" height="19.225" width="76" y="636.3" x="1524" style="fill:rgb(73, 0, 106);;animation:none"></rect>
<rect fill="#fff7f3" height="19.225" width="245" y="653.6" x="0" style="fill:rgb(255, 247, 243);;animation:none"></rect>
<rect fill="#fde0dd" height="19.225" width="45" y="653.6" x="244" style="fill:rgb(253, 224, 221);;animation:none"></rect>
<rect fill="#fcc5c0" height="19.225" width="235" y="653.6" x="289" style="fill:rgb(252, 197, 192);;animation:none"></rect>
<rect fill="#fa9fb5" height="19.225" width="233" y="653.6" x="524" style="fill:rgb(250, 159, 181);;animation:none"></rect>
<rect fill="#f768a1" height="19.225" width="189" y="653.6" x="756" style="fill:rgb(247, 104, 161);;animation:none"></rect>
<rect fill="#dd3497" height="19.225" width="225" y="653.6" x="945" style="fill:rgb(221, 52, 151);;animation:none"></rect>
<rect fill="#ae017e" height="19.225" width="149" y="653.6" x="1170" style="fill:rgb(174, 1, 126);;animation:none"></rect>
<rect fill="#7a0177" height="19.225" width="216" y="653.6" x="1318" style="fill:rgb(122, 1, 119);;animation:none"></rect>
<rect fill="#49006a" height="19.225" width="66" y="653.6" x="1534" style="fill:rgb(73, 0, 106);;animation:none"></rect>
<rect fill="#fff7f3" height="19.225" width="202" y="670.8" x="0" style="fill:rgb(255, 247, 243);;animation:none"></rect>
<rect fill="#fde0dd" height="19.225" width="91" y="670.8" x="201" style="fill:rgb(253, 224, 221);;animation:none"></rect>
<rect fill="#fcc5c0" height="19.225" width="187" y="670.8" x="291" style="fill:rgb(252, 197, 192);;animation:none"></rect>
<rect fill="#fa9fb5" height="19.225" width="238" y="670.8" x="477" style="fill:rgb(250, 159, 181);;animation:none"></rect>
<rect fill="#f768a1" height="19.225" width="253" y="670.8" x="715" style="fill:rgb(247, 104, 161);;animation:none"></rect>
<rect fill="#dd3497" height="19.225" width="232" y="670.8" x="967" style="fill:rgb(221, 52, 151);;animation:none"></rect>
<rect fill="#ae017e" height="19.225" width="140" y="670.8" x="1199" style="fill:rgb(174, 1, 126);;animation:none"></rect>
<rect fill="#7a0177" height="19.225" width="67" y="670.8" x="1338" style="fill:rgb(122, 1, 119);;animation:none"></rect>
<rect fill="#49006a" height="19.225" width="195" y="670.8" x="1405" style="fill:rgb(73, 0, 106);;animation:none"></rect>
<g></g></g><!-- [ldio] generated by https://loading.io --></svg>